<svg xmlns="http://www.w3.org/2000/svg" width="66.856" height="66.856" viewBox="0 0 66.856 66.856"><g transform="translate(-4030 -1445)"><circle cx="32" cy="32" r="32" transform="translate(4031 1446)" fill="#fff"/><g transform="translate(4026.625 1441.625)"><path d="M36.8,7.875A28.933,28.933,0,0,1,57.262,57.262,28.933,28.933,0,0,1,16.344,16.344,28.737,28.737,0,0,1,36.8,7.875m0-4.5A33.428,33.428,0,1,0,70.231,36.8,33.423,33.423,0,0,0,36.8,3.375Z" fill="#fe0e2b"/></g><g transform="translate(206.022 3445.263) rotate(-45)"><g transform="translate(4111.84 1317.515)"><path d="M3.68,0V13.694H1L7.43,19.36l6.28-5.666H11.03V0Z" transform="translate(-1 19.36)" fill="#fe0e2b"/><path d="M3.68,19.36V5.666H1L7.43,0l6.28,5.666H11.03V19.36Z" transform="translate(-1)" fill="#fe0e2b"/></g><g transform="translate(4137.72 1330.519) rotate(90)"><path d="M10.03,0V13.694h2.68L6.28,19.36,0,13.694H2.68V0Z" transform="translate(0 19.36)" fill="#fe0e2b"/><path d="M10.03,19.36V5.666h2.68L6.28,0,0,5.666H2.68V19.36Z" fill="#fe0e2b"/></g></g></g></svg>