<svg xmlns="http://www.w3.org/2000/svg" width="31.401" height="60.707" viewBox="0 0 31.401 60.707"><g transform="translate(46.054) rotate(90)"><path d="M55.377,24.919,43.031,15.181s-.006,0-.008,0a.368.368,0,0,0-.117-.071c-6.672-2.722-2.856,7.661-4.514,7.908L20.135,25.74q-8.721,1.3-17.441,2.6C.936,28.606,0,29.4,0,31.151c0,1.594,2.95,1.537,4.005,1.693q10.123,1.508,20.248,3.015c2.339.348,14.326.482,14.326,3.657,0,1.317-.851,6.1,1.261,6.463,1.711.3,2.764-.32,4.064-1.347L59.515,32.321a3.721,3.721,0,0,0,.805-.858c.016-.017.025-.036.039-.054.045-.069.1-.14.133-.208a1.63,1.63,0,0,0,.154-.411C61.255,28.468,57.145,26.314,55.377,24.919ZM2.33,29.856c-.064.153-.128.309-.19.462-.054.131-.1.262-.139.388-.019-.027-.051-.046-.068-.074-.332-.542-.01-.936.609-1.229C2.47,29.541,2.4,29.691,2.33,29.856ZM52.773,25.01l.312.246c-1.814,3.778-3.71,7.517-5.721,11.2-.266.483-.328.457-.133-.061.765-2.021,1.59-4.017,2.424-6a16.55,16.55,0,0,1,.9-1.776Q51.661,26.808,52.773,25.01ZM44.25,18.286l1.179.931c-.2.287-.394.573-.59.86A3.149,3.149,0,0,1,43.6,21.108a2.077,2.077,0,0,0-.621.326c-.142.151-.275.308-.408.465-.221.261-.2.073.053-.419ZM41.07,16c-.023.033-.055.064-.075.1-.074.119-.147.238-.222.356A.773.773,0,0,1,41.07,16Zm-.341,3.9q.909-1.476,1.821-2.949l.188.148q-1.035,2.038-2.079,4.079c-.039.075-.074.147-.11.222,0-.347-.011-.781-.02-1.254A.95.95,0,0,0,40.729,19.9ZM6.836,29.107Q6.2,30.288,5.587,31.475a.736.736,0,0,0-.066.519,14.826,14.826,0,0,1-1.482-.237,1.545,1.545,0,0,0,.351-.475q.432-.96.878-1.911a.544.544,0,0,0-.013-.613c.975-.124,1.832-.173,2.075-.2A1.9,1.9,0,0,0,6.836,29.107Zm3.416,3.526q-1.526-.225-3.05-.454a1.311,1.311,0,0,0,.363-.411q.776-1.509,1.575-3.005a.594.594,0,0,0,.067-.488l4.273-.638a2.1,2.1,0,0,0-.5.511q-1.284,2.053-2.6,4.08A.786.786,0,0,0,10.252,32.633Zm4.223.18a.768.768,0,0,0-.1.435l-2.438-.363a1.415,1.415,0,0,0,.376-.367q1.531-2.339,3.009-4.715a.587.587,0,0,0,.1-.454l2.583-.386a1.979,1.979,0,0,0-.494.536Q16,30.156,14.475,32.813Zm8.407,1.25a.771.771,0,0,0-.1.436l-5.167-.769a1.325,1.325,0,0,0,.37-.4Q19.8,30.1,21.633,26.882a.591.591,0,0,0,.082-.475q3.051-.456,6.1-.911a1.93,1.93,0,0,0-.491.553Q25.153,30.08,22.882,34.063ZM27.1,35.14l-2.462-.365a1.448,1.448,0,0,0,.38-.372q2.925-4.541,6-8.981a.662.662,0,0,0,.137-.38c.689-.055,1.514-.1,2.392-.169a1.7,1.7,0,0,0-.194.233c-2.035,3.214-4.117,6.4-6.131,9.62A.751.751,0,0,0,27.1,35.14Zm2.135.317-.068-.009c-.1-.017-.206-.03-.309-.046.014-.018.037-.028.048-.047.1-.168.2-.335.3-.5,2.081-3.391,4.258-6.725,6.388-10.084a.992.992,0,0,0,.053-.125l.11-.016a1.484,1.484,0,0,0-.116.143q-3.15,5.131-6.29,10.268A.765.765,0,0,0,29.235,35.457Zm3.816.293c-.727-.065-1.41-.112-2.009-.152a1.3,1.3,0,0,0,.235-.271q3.331-5.451,6.666-10.9a.776.776,0,0,0,.123-.335A4.593,4.593,0,0,0,40.025,22.9c0,.006-.006.014-.01.021a13.185,13.185,0,0,0-.931,1.312q-2.938,5.7-5.981,11.342A.815.815,0,0,0,33.051,35.75Zm4.812-.939c-.27.458-.543.913-.816,1.369A1.223,1.223,0,0,0,37,36.3c-.266-.057-.537-.107-.814-.157.018-.021.043-.04.06-.062q1.471-2.235,2.948-4.469c.306-.46.375-.423.15.082Q38.639,33.271,37.863,34.811Zm5,7.765-.694,1.96a1.222,1.222,0,0,1-.722.252q.628-1.142,1.26-2.282C42.979,42.023,43.049,42.054,42.867,42.576Zm-2.16-.843a4.105,4.105,0,0,0-.273.6c-.076-1.473.077-3.178.077-3.844,0-.727-.671-1.264-1.687-1.665a1.267,1.267,0,0,0,.3-.354q.565-1.041,1.1-2.1c2.586-4.384,5.121-8.8,7.692-13.2l2.635,2.079q-.7,1.881-1.457,3.744c-.864,1.671-1.754,3.33-2.649,4.985Q43.535,36.837,40.707,41.733Zm6.418-1.072c2.711-4.6,5.21-9.339,7.544-14.156.13.1.259.2.39.307-2.18,4.17-4.287,8.381-6.359,12.609Q47.91,40.041,47.125,40.661Zm10.208-8.049q-2.58,2.034-5.161,4.069,2.17-4.383,4.411-8.726a6.877,6.877,0,0,1,2.008,1.982Q57.964,31.278,57.333,32.612Z" fill="#fff"/></g></svg>