<svg xmlns="http://www.w3.org/2000/svg" width="31.401" height="60.707" viewBox="0 0 31.401 60.707"><g transform="translate(0 60.707) rotate(-90)"><g transform="translate(0 0)"><path d="M55.377,21.135,43.031,30.873s-.006,0-.008,0a.368.368,0,0,1-.117.071c-6.672,2.722-2.856-7.661-4.514-7.908L20.135,20.314q-8.721-1.3-17.441-2.6C.936,17.448,0,16.655,0,14.9c0-1.594,2.95-1.537,4.005-1.693Q14.129,11.7,24.253,10.195c2.339-.348,14.326-.482,14.326-3.657,0-1.317-.851-6.1,1.261-6.463,1.711-.3,2.764.32,4.064,1.347L59.515,13.733a3.721,3.721,0,0,1,.805.858c.016.017.025.036.039.054.045.069.1.14.133.208a1.63,1.63,0,0,1,.154.411C61.255,17.586,57.145,19.74,55.377,21.135ZM2.33,16.2c-.064-.153-.128-.309-.19-.462-.054-.131-.1-.262-.139-.388-.019.027-.051.046-.068.074-.332.542-.01.936.609,1.229C2.47,16.513,2.4,16.363,2.33,16.2Zm50.443,4.846.312-.246c-1.814-3.778-3.71-7.517-5.721-11.2-.266-.483-.328-.457-.133.061.765,2.021,1.59,4.017,2.424,6a16.55,16.55,0,0,0,.9,1.776Q51.662,19.246,52.773,21.044ZM44.25,27.768l1.179-.931c-.2-.287-.394-.573-.59-.86A3.149,3.149,0,0,0,43.6,24.946a2.077,2.077,0,0,1-.621-.326c-.142-.151-.275-.308-.408-.465-.221-.261-.2-.073.053.419Zm-3.18,2.287c-.023-.033-.055-.064-.075-.1-.074-.119-.147-.238-.222-.356A.773.773,0,0,0,41.07,30.055Zm-.341-3.9q.909,1.476,1.821,2.949l.188-.148q-1.035-2.038-2.079-4.079c-.039-.075-.074-.147-.11-.222,0,.347-.011.781-.02,1.254A.95.95,0,0,1,40.729,26.159ZM6.836,16.947q-.632-1.18-1.249-2.368a.736.736,0,0,1-.066-.519,14.826,14.826,0,0,0-1.482.237,1.545,1.545,0,0,1,.351.475q.432.96.878,1.911a.544.544,0,0,1-.013.613c.975.124,1.832.173,2.075.2A1.9,1.9,0,0,1,6.836,16.947Zm3.416-3.526q-1.526.225-3.05.454a1.311,1.311,0,0,1,.363.411q.776,1.509,1.575,3a.594.594,0,0,1,.067.488l4.273.638a2.1,2.1,0,0,1-.5-.511q-1.284-2.053-2.6-4.08A.786.786,0,0,1,10.252,13.421Zm4.223-.18a.768.768,0,0,1-.1-.435l-2.438.363a1.415,1.415,0,0,1,.376.367q1.531,2.338,3.009,4.715a.587.587,0,0,1,.1.454l2.583.386a1.978,1.978,0,0,1-.494-.536Q16,15.9,14.475,13.241Zm8.407-1.25a.771.771,0,0,1-.1-.436l-5.167.769a1.325,1.325,0,0,1,.37.4q1.819,3.229,3.648,6.452a.591.591,0,0,1,.082.475q3.051.456,6.1.911A1.93,1.93,0,0,1,27.327,20Q25.154,15.974,22.882,11.991ZM27.1,10.914l-2.462.365a1.448,1.448,0,0,1,.38.372q2.925,4.54,6,8.981a.662.662,0,0,1,.137.38c.689.055,1.514.1,2.392.169a1.7,1.7,0,0,1-.194-.233c-2.035-3.214-4.117-6.4-6.131-9.62A.751.751,0,0,1,27.1,10.914Zm2.135-.317-.068.009c-.1.017-.206.03-.309.046.014.018.037.028.048.047.1.168.2.335.3.5,2.081,3.391,4.258,6.725,6.388,10.084a.992.992,0,0,1,.053.125l.11.016a1.484,1.484,0,0,1-.116-.143q-3.15-5.131-6.29-10.268A.765.765,0,0,1,29.235,10.6Zm3.816-.293c-.727.065-1.41.112-2.009.152a1.3,1.3,0,0,1,.235.271q3.331,5.451,6.666,10.9a.776.776,0,0,1,.123.335,4.593,4.593,0,0,1,1.959,1.191c0-.006-.006-.014-.01-.021a13.185,13.185,0,0,1-.931-1.312q-2.938-5.7-5.981-11.342A.815.815,0,0,1,33.051,10.3Zm4.812.939c-.27-.458-.543-.913-.816-1.369A1.223,1.223,0,0,1,37,9.755c-.266.057-.537.107-.814.157.018.021.043.04.06.062q1.471,2.235,2.948,4.469c.306.46.375.423.15-.082Q38.639,12.783,37.863,11.243Zm5-7.765-.694-1.96a1.222,1.222,0,0,0-.722-.252q.628,1.142,1.26,2.282C42.979,4.031,43.049,4,42.867,3.478Zm-2.16.843a4.105,4.105,0,0,1-.273-.6c-.076,1.473.077,3.178.077,3.844,0,.727-.671,1.264-1.687,1.665a1.267,1.267,0,0,1,.3.354q.565,1.041,1.1,2.1c2.586,4.384,5.121,8.8,7.692,13.2L50.55,22.8q-.7-1.881-1.457-3.744c-.864-1.671-1.754-3.33-2.649-4.985Q43.536,9.217,40.707,4.321Zm6.418,1.072c2.711,4.6,5.21,9.339,7.544,14.156.13-.1.259-.2.39-.307-2.18-4.17-4.287-8.381-6.359-12.609Q47.91,6.013,47.125,5.393Zm10.208,8.049q-2.58-2.034-5.161-4.069,2.17,4.383,4.411,8.726a6.877,6.877,0,0,0,2.008-1.982Q57.964,14.776,57.333,13.442Z" fill="#fff"/></g></g></svg>